<svg width="109" height="39" viewBox="0 0 109 39" fill="none" xmlns="http://www.w3.org/2000/svg">
<g clip-path="url(#clip0_38_27)">
<path d="M31.0781 28.7578C31.0781 29.7109 30.9219 30.6016 30.6094 31.4297C30.2969 32.2578 29.8672 33.0156 29.3203 33.7031C28.7734 34.375 28.1328 34.9766 27.3984 35.5078C26.6797 36.0391 25.8984 36.4844 25.0547 36.8438C24.2266 37.2031 23.3672 37.4766 22.4766 37.6641C21.5859 37.8359 20.7109 37.9219 19.8516 37.9219H0V4.17188H18.1406C18.9375 4.17188 19.7734 4.23438 20.6484 4.35938C21.5234 4.46875 22.375 4.64844 23.2031 4.89844C24.0469 5.14844 24.8438 5.47656 25.5938 5.88281C26.3594 6.28906 27.0234 6.78906 27.5859 7.38281C28.1641 7.96094 28.6172 8.63281 28.9453 9.39844C29.2891 10.1641 29.4609 11.0391 29.4609 12.0234C29.4609 12.9609 29.2734 13.8125 28.8984 14.5781C28.5234 15.3438 28.0156 16.0312 27.375 16.6406C26.75 17.2344 26.0234 17.7656 25.1953 18.2344C24.3828 18.6875 23.5234 19.0859 22.6172 19.4297C23.7578 19.7422 24.8359 20.1562 25.8516 20.6719C26.8828 21.1875 27.7812 21.8203 28.5469 22.5703C29.3281 23.3203 29.9453 24.2109 30.3984 25.2422C30.8516 26.2578 31.0781 27.4297 31.0781 28.7578ZM20.0156 12.8438C20.0156 10.9375 19.5078 9.54688 18.4922 8.67188C17.4922 7.79688 16.0625 7.35938 14.2031 7.35938H9.30469V18.3047H13.4062C14.25 18.3047 15.0703 18.2031 15.8672 18C16.6641 17.7812 17.3672 17.4531 17.9766 17.0156C18.6016 16.5625 19.0938 15.9922 19.4531 15.3047C19.8281 14.6172 20.0156 13.7969 20.0156 12.8438ZM21.6562 28.1719C21.6562 27.25 21.5391 26.3906 21.3047 25.5938C21.0703 24.7812 20.7109 24.0859 20.2266 23.5078C19.7422 22.9141 19.1328 22.4531 18.3984 22.125C17.6797 21.7812 16.8281 21.6094 15.8438 21.6094H9.30469V34.6406H15.0234C15.9766 34.6406 16.8594 34.4844 17.6719 34.1719C18.4844 33.8594 19.1875 33.4219 19.7812 32.8594C20.375 32.2969 20.8359 31.6172 21.1641 30.8203C21.4922 30.0234 21.6562 29.1406 21.6562 28.1719Z" fill="black"/>
<path d="M44.1797 4.3125C44.1797 4.90625 44.0625 5.46875 43.8281 6C43.6094 6.53125 43.3047 6.99219 42.9141 7.38281C42.5234 7.77344 42.0625 8.08594 41.5312 8.32031C41 8.53906 40.4375 8.64844 39.8438 8.64844C39.25 8.64844 38.6875 8.53906 38.1562 8.32031C37.6406 8.08594 37.1875 7.77344 36.7969 7.38281C36.4062 6.99219 36.0938 6.53125 35.8594 6C35.6406 5.46875 35.5312 4.90625 35.5312 4.3125C35.5312 3.71875 35.6406 3.16406 35.8594 2.64844C36.0938 2.11719 36.4062 1.65625 36.7969 1.26562C37.1875 0.875 37.6406 0.570312 38.1562 0.351562C38.6875 0.117188 39.25 0 39.8438 0C40.4375 0 41 0.117188 41.5312 0.351562C42.0625 0.570312 42.5234 0.875 42.9141 1.26562C43.3047 1.65625 43.6094 2.11719 43.8281 2.64844C44.0625 3.16406 44.1797 3.71875 44.1797 4.3125ZM43.8281 37.9219H35.8828V10.875H43.8281V37.9219Z" fill="black"/>
<path d="M58.4062 37.9219H50.4844V0.890625H58.4062V25.1953C59.7031 24.2578 60.9766 23.2266 62.2266 22.1016C63.4922 20.9766 64.6953 19.7969 65.8359 18.5625C66.9766 17.3125 68.0312 16.0391 69 14.7422C69.9844 13.4453 70.8438 12.1484 71.5781 10.8516H76.9688C75.875 12.6953 74.5781 14.5391 73.0781 16.3828C71.5781 18.2109 69.9453 19.9609 68.1797 21.6328L77.0625 37.9219H68.3203L62.0156 26.625C60.8438 27.4219 59.6406 28.1562 58.4062 28.8281V37.9219Z" fill="black"/>
<path d="M108.656 24.3281C108.656 25.7344 108.469 27.0547 108.094 28.2891C107.719 29.5234 107.195 30.6641 106.523 31.7109C105.867 32.7578 105.07 33.7031 104.133 34.5469C103.195 35.375 102.164 36.0781 101.039 36.6562C99.9297 37.2344 98.7344 37.6797 97.4531 37.9922C96.1875 38.3047 94.8828 38.4609 93.5391 38.4609C92.1953 38.4609 90.8906 38.3047 89.625 37.9922C88.3594 37.6797 87.1641 37.2344 86.0391 36.6562C84.9297 36.0781 83.9062 35.375 82.9688 34.5469C82.0312 33.7031 81.2266 32.7578 80.5547 31.7109C79.8984 30.6641 79.3828 29.5234 79.0078 28.2891C78.6328 27.0391 78.4453 25.7188 78.4453 24.3281C78.4453 22.9375 78.6328 21.625 79.0078 20.3906C79.3828 19.1406 79.8984 17.9922 80.5547 16.9453C81.2266 15.8984 82.0312 14.9609 82.9688 14.1328C83.9062 13.2891 84.9297 12.5781 86.0391 12C87.1641 11.4219 88.3594 10.9766 89.625 10.6641C90.8906 10.3516 92.1953 10.1953 93.5391 10.1953C94.8828 10.1953 96.1875 10.3516 97.4531 10.6641C98.7344 10.9766 99.9297 11.4219 101.039 12C102.164 12.5781 103.195 13.2891 104.133 14.1328C105.07 14.9609 105.867 15.8984 106.523 16.9453C107.195 17.9922 107.719 19.1406 108.094 20.3906C108.469 21.625 108.656 22.9375 108.656 24.3281ZM100.594 24.3281C100.594 23.5781 100.547 22.7891 100.453 21.9609C100.375 21.1172 100.234 20.2969 100.031 19.5C99.8281 18.6875 99.5469 17.9141 99.1875 17.1797C98.8438 16.4297 98.4141 15.7812 97.8984 15.2344C97.3828 14.6719 96.7656 14.2266 96.0469 13.8984C95.3281 13.5547 94.4922 13.3828 93.5391 13.3828C92.6328 13.3828 91.8281 13.5547 91.125 13.8984C90.4219 14.2422 89.8047 14.7031 89.2734 15.2812C88.7578 15.8438 88.3203 16.5 87.9609 17.25C87.6172 18 87.3359 18.7812 87.1172 19.5938C86.8984 20.3906 86.7422 21.2031 86.6484 22.0312C86.5547 22.8438 86.5078 23.6094 86.5078 24.3281C86.5078 25.0469 86.5547 25.8203 86.6484 26.6484C86.7422 27.4609 86.8984 28.2734 87.1172 29.0859C87.3359 29.8984 87.6172 30.6797 87.9609 31.4297C88.3203 32.1641 88.7578 32.8203 89.2734 33.3984C89.8047 33.9609 90.4219 34.4141 91.125 34.7578C91.8281 35.1016 92.6328 35.2734 93.5391 35.2734C94.4766 35.2734 95.3047 35.1094 96.0234 34.7812C96.7422 34.4375 97.3594 33.9844 97.875 33.4219C98.4062 32.8594 98.8438 32.2109 99.1875 31.4766C99.5312 30.7422 99.8047 29.9688 100.008 29.1562C100.227 28.3438 100.375 27.5234 100.453 26.6953C100.547 25.8672 100.594 25.0781 100.594 24.3281Z" fill="black"/>
</g>
<defs>
<clipPath id="clip0_38_27">
<rect width="108.656" height="38.4609" fill="white"/>
</clipPath>
</defs>
</svg>
